<?xml version="1.0" encoding="UTF-8"?>
<!DOCTYPE svg PUBLIC "-//W3C//DTD SVG 1.1//EN" "http://www.w3.org/Graphics/SVG/1.1/DTD/svg11.dtd">
<svg xmlns="http://www.w3.org/2000/svg" xmlns:xlink="http://www.w3.org/1999/xlink" version="1.1" width="1741px" height="802px" viewBox="-0.5 -0.5 1741 802"><defs/><g><rect x="300" y="397" width="1100" height="260" rx="39" ry="39" fill="#f5f5f5" stroke="#666666" pointer-events="all"/><rect x="440" y="439.39" width="400" height="80" rx="12" ry="12" fill="#ffffff" stroke="#000000" pointer-events="all"/><g fill="#000000" font-family="Helvetica" text-anchor="middle" font-size="7px"><text x="639.5" y="481.39">   Technical metadata   </text></g><rect x="440" y="534.61" width="400" height="80" rx="9.6" ry="9.6" fill="#ffffff" stroke="#000000" pointer-events="all"/><g fill="#000000" font-family="Helvetica" text-anchor="middle" font-size="7px"><text x="639.5" y="576.61">   Process metadata   </text></g><rect x="860" y="439.39" width="400" height="80" rx="9.6" ry="9.6" fill="#ffffff" stroke="#000000" pointer-events="all"/><g fill="#000000" font-family="Helvetica" text-anchor="middle" font-size="7px"><text x="1059.5" y="481.39">   Business metadata   </text></g><rect x="860" y="534.61" width="400" height="80" rx="9.6" ry="9.6" fill="#ffffff" stroke="#000000" pointer-events="all"/><g fill="#000000" font-family="Helvetica" text-anchor="middle" font-size="7px"><text x="1059.5" y="576.61">   Audit trail metadata   </text></g><rect x="825" y="640" width="50" height="10" fill="none" stroke="none" pointer-events="all"/><g fill="black" font-family="Helvetica" font-weight="bold" text-anchor="middle" font-size="7px"><text x="849.5" y="647">Metadata</text></g><path d="M 650 290 L 670 290 L 655 290 L 668.63 290" fill="none" stroke="#666666" stroke-miterlimit="10" stroke-dasharray="3 3" pointer-events="stroke"/><path d="M 673.88 290 L 666.88 293.5 L 668.63 290 L 666.88 286.5 Z" fill="#666666" stroke="#666666" stroke-miterlimit="10" pointer-events="all"/><path d="M 562.5 250 L 562.5 230 L 1137.5 230 L 1137.5 243.63" fill="none" stroke="#666666" stroke-miterlimit="10" stroke-dasharray="3 3" pointer-events="stroke"/><path d="M 1137.5 248.88 L 1134 241.88 L 1137.5 243.63 L 1141 241.88 Z" fill="#666666" stroke="#666666" stroke-miterlimit="10" pointer-events="all"/><rect x="300" y="250" width="350" height="80" rx="9.6" ry="9.6" fill="#ffffff" stroke="#000000" pointer-events="all"/><g fill="#000000" font-family="Helvetica" text-anchor="middle" font-size="7px"><text x="474.5" y="292">   Reference data   </text></g><path d="M 1025 290 L 1045 290 L 1030 290 L 1043.63 290" fill="none" stroke="#666666" stroke-miterlimit="10" stroke-dasharray="3 3" pointer-events="stroke"/><path d="M 1048.88 290 L 1041.88 293.5 L 1043.63 290 L 1041.88 286.5 Z" fill="#666666" stroke="#666666" stroke-miterlimit="10" pointer-events="all"/><rect x="675" y="250" width="350" height="80" rx="9.6" ry="9.6" fill="#ffffff" stroke="#000000" pointer-events="all"/><g fill="#000000" font-family="Helvetica" text-anchor="middle" font-size="7px"><text x="849.5" y="292">Master data</text></g><rect x="1050" y="250" width="350" height="80" rx="9.6" ry="9.6" fill="#ffffff" stroke="#000000" pointer-events="all"/><g fill="#000000" font-family="Helvetica" text-anchor="middle" font-size="7px"><text x="1224.5" y="292">   Transactional data   </text></g><path d="M 1225 330 L 1225 363.5 L 1225.08 363.5 L 1225.1 390.63" fill="none" stroke="#000000" stroke-miterlimit="10" pointer-events="stroke"/><path d="M 1225.1 395.88 L 1221.6 388.88 L 1225.1 390.63 L 1228.6 388.88 Z" fill="#000000" stroke="#000000" stroke-miterlimit="10" pointer-events="all"/><path d="M 475 330 L 475 363.5 L 474.92 363.5 L 474.9 390.63" fill="none" stroke="#000000" stroke-miterlimit="10" pointer-events="stroke"/><path d="M 474.9 395.88 L 471.4 388.88 L 474.9 390.63 L 478.4 388.88 Z" fill="#000000" stroke="#000000" stroke-miterlimit="10" pointer-events="all"/><path d="M 561.8 397 L 562.44 336.37" fill="none" stroke="#666666" stroke-miterlimit="10" stroke-dasharray="3 3" pointer-events="stroke"/><path d="M 562.49 331.12 L 565.92 338.15 L 562.44 336.37 L 558.92 338.08 Z" fill="#666666" stroke="#666666" stroke-miterlimit="10" pointer-events="all"/><path d="M 1137.1 397 L 1137.46 336.37" fill="none" stroke="#666666" stroke-miterlimit="10" stroke-dasharray="3 3" pointer-events="stroke"/><path d="M 1137.49 331.12 L 1140.95 338.14 L 1137.46 336.37 L 1133.95 338.1 Z" fill="#666666" stroke="#666666" stroke-miterlimit="10" pointer-events="all"/><path d="M 938 397.52 L 937.54 336.37" fill="none" stroke="#666666" stroke-miterlimit="10" stroke-dasharray="3 3" pointer-events="stroke"/><path d="M 937.5 331.12 L 941.06 338.09 L 937.54 336.37 L 934.06 338.14 Z" fill="#666666" stroke="#666666" stroke-miterlimit="10" pointer-events="all"/><rect x="620" y="680" width="464.52" height="120" fill-opacity="0.5" fill="#f5f5f5" stroke="#666666" stroke-opacity="0.5" pointer-events="all"/><rect x="767.5" y="90" width="165" height="80" rx="9.6" ry="9.6" fill="#ffffff" stroke="#000000" pointer-events="all"/><g fill="#000000" font-family="Helvetica" text-anchor="middle" font-size="7px"><text x="849.5" y="132">Data</text></g><path d="M 850 170 L 850 200 L 475 200 L 475 243.63" fill="none" stroke="#000000" stroke-miterlimit="10" pointer-events="stroke"/><path d="M 475 248.88 L 471.5 241.88 L 475 243.63 L 478.5 241.88 Z" fill="#000000" stroke="#000000" stroke-miterlimit="10" pointer-events="all"/><path d="M 850 170 L 850 243.63" fill="none" stroke="#000000" stroke-miterlimit="10" pointer-events="stroke"/><path d="M 850 248.88 L 846.5 241.88 L 850 243.63 L 853.5 241.88 Z" fill="#000000" stroke="#000000" stroke-miterlimit="10" pointer-events="all"/><path d="M 850 170 L 850 200 L 1225 200 L 1225 243.63" fill="none" stroke="#000000" stroke-miterlimit="10" pointer-events="stroke"/><path d="M 1225 248.88 L 1221.5 241.88 L 1225 243.63 L 1228.5 241.88 Z" fill="#000000" stroke="#000000" stroke-miterlimit="10" pointer-events="all"/><path d="M 762.5 330 L 762.5 393.63" fill="none" stroke="#000000" stroke-miterlimit="10" pointer-events="stroke"/><path d="M 762.5 398.88 L 759 391.88 L 762.5 393.63 L 766 391.88 Z" fill="#000000" stroke="#000000" stroke-miterlimit="10" pointer-events="all"/><path d="M 960 720 L 1033.63 720" fill="none" stroke="#000000" stroke-miterlimit="10" pointer-events="stroke"/><path d="M 1038.88 720 L 1031.88 723.5 L 1033.63 720 L 1031.88 716.5 Z" fill="#000000" stroke="#000000" stroke-miterlimit="10" pointer-events="all"/><g fill="black" font-family="Helvetica" text-anchor="middle" font-size="4px"><rect fill="#ffffff" stroke="none" x="786" y="727" width="29" height="8" stroke-width="0"/><text x="799.5" y="730.5">Relates to</text></g><path d="M 960 760 L 976.66 760 Q 986.66 760 996.66 760 L 1033.63 760" fill="none" stroke="#666666" stroke-miterlimit="10" stroke-dasharray="3 3" pointer-events="stroke"/><path d="M 1038.88 760 L 1031.88 763.5 L 1033.63 760 L 1031.88 756.5 Z" fill="#666666" stroke="#666666" stroke-miterlimit="10" pointer-events="all"/><g fill="black" font-family="Helvetica" text-anchor="middle" font-size="4px"><rect fill="#ffffff" stroke="none" x="775" y="767" width="51" height="8" stroke-width="0"/><text x="799.92" y="770.92">Required to create</text></g></g></svg>